<svg width="1077" height="813" viewBox="0 0 1077 813" fill="none" xmlns="http://www.w3.org/2000/svg">
<g id="undraw_Ride_a_bicycle_2yok 1" clip-path="url(#clip0)" filter="url(#filter0_dd)">
<path id="Vector" d="M212.636 131.409C207.281 138.159 205.345 147.547 203.148 156.379C185.468 227.56 139.715 285.401 87.1609 327.084C64.9052 344.741 37.8497 368.368 43.3633 399.181C46.3313 415.729 58.2264 427.73 67.1462 441.086C85.8592 469.053 92.4733 507.417 84.4347 541.462C75.293 580.199 48.4065 616.685 57.6596 655.509C63.3647 679.408 81.5391 696.153 98.9789 710.511C126.186 732.896 154.22 753.819 183.08 773.279C202.426 786.322 222.985 798.982 245.272 800.268C264.897 801.403 283.955 793.598 302.425 785.903C318.563 779.172 335.106 772.173 347.994 759.051C356.406 750.484 363.033 739.509 372.424 732.453C394.48 715.88 423.385 725.585 449.149 732.027C509.941 747.14 574.569 740.007 631.627 711.892C719.15 668.758 784.829 580.372 870.325 532.015C907.085 511.218 947.246 497.989 981.148 471.455C1000.25 456.351 1016.56 438.027 1029.35 417.309C1054.6 376.723 1067.71 325.331 1062.72 275.355C1057.73 225.379 1034.09 177.57 997.837 149.979C959.031 120.445 910.624 115.694 866.774 98.3459C821.494 80.4243 780.921 48.9329 736.045 29.6336C699.733 14.0624 660.396 6.81845 620.919 8.43318C581.442 10.0479 542.828 20.4804 507.909 38.9651C459.933 64.3611 411.903 122.424 358.043 127.766C319.666 131.48 241.974 94.4371 212.636 131.409Z" fill="url(#paint0_linear)"/>
<g id="Right-wheel">
<path id="Vector_2" d="M699.81 721.807L691.731 624.04L691.597 623.832L685.319 626.149L657.811 711.485L610.959 679.551L683.644 624.78L683.71 624.569L684.127 624.411L688.812 620.874L610.78 579.007L592.24 600.155L595.602 619.596L684.416 619.525L684.453 621.525L593.959 621.587L590.149 599.544L615.505 570.617L653.379 524.735L654.104 526.592L662.135 517.442L692.771 522.343L692.749 521.133L694.75 521.156L694.778 522.666L740.281 529.941L699.531 615.363L693.446 619.947L693.455 620.447L693.465 621.007L790.625 585.115L780.712 676.525L696.744 625.207L693.794 623.621L744.192 701.588L699.81 721.807ZM694.057 627.557L701.604 718.813L741.324 700.691L694.057 627.557ZM614.438 679.486L656.772 708.334L682.625 628.1L614.438 679.486ZM695.71 622.306L697.821 623.437L779.109 673.134L788.33 588.078L695.71 622.306ZM688.477 615.239L691.062 619.241L691.496 618.913L692.739 524.344L662.905 519.558L654.913 528.708L688.477 615.239ZM612.375 577.597L687.982 618.199L686.643 616.093L653.465 530.425L617.031 571.989L612.375 577.597ZM694.775 524.666L693.498 617.396L697.956 614.032L737.339 531.466L694.775 524.666Z" fill="#535461"/>
<path id="Vector_3" d="M690.655 503.159C680.043 503.344 669.505 504.967 659.329 507.982C654.08 509.535 648.949 511.458 643.973 513.738C617.463 525.821 596.376 547.305 584.791 574.037C573.206 600.768 571.947 630.846 581.257 658.452C590.567 686.058 609.784 709.231 635.192 723.486C660.6 737.742 690.392 742.068 718.805 735.628C747.217 729.187 772.232 712.438 789.009 688.62C805.787 664.802 813.134 635.608 809.631 606.686C806.127 577.763 792.022 551.168 770.043 532.045C748.064 512.922 719.773 502.629 690.645 503.159L690.655 503.159ZM694.085 709.221C673.807 709.59 654.014 703.011 637.991 690.577C621.969 678.144 610.682 660.603 606.004 640.869C601.327 621.135 603.541 600.394 612.279 582.092C621.016 563.79 635.752 549.027 654.038 540.256C658.689 538.021 663.528 536.201 668.499 534.816C680.65 531.42 693.385 530.65 705.857 532.559C718.329 534.468 730.251 539.01 740.83 545.885C751.41 552.76 760.404 561.809 767.213 572.431C774.023 583.052 778.493 595.002 780.325 607.485C782.157 619.968 781.309 632.698 777.839 644.829C774.368 656.959 768.353 668.21 760.196 677.835C752.038 687.46 741.924 695.237 730.526 700.649C719.129 706.06 706.71 708.982 694.095 709.221L694.085 709.221Z" fill="#535461"/>
<path id="Vector_4" d="M692.672 633.204C699.745 633.072 705.373 627.232 705.242 620.158C705.11 613.085 699.269 607.457 692.196 607.588C685.122 607.72 679.494 613.561 679.626 620.634C679.757 627.708 685.598 633.335 692.672 633.204Z" fill="#535461"/>
</g>
<g id="Left-wheel">
<path id="Vector_5" d="M262.912 737.927L254.823 640.121L254.689 639.913L248.411 642.23L220.913 727.606L174.061 695.681L246.726 640.912L246.792 640.7L247.209 640.542L251.894 637.005L173.863 595.138L155.333 616.286L158.695 635.727L247.529 635.696L247.566 637.695L157.072 637.757L153.241 615.685L178.608 586.748L216.511 540.836L217.236 542.693L225.267 533.542L255.823 538.435L255.801 537.225L257.801 537.248L257.83 538.758L303.333 546.033L262.622 631.414L256.536 635.998L256.546 636.498L256.556 637.058L353.706 601.166L343.793 692.576L259.825 641.258L256.875 639.673L307.272 717.63L262.912 737.927ZM257.159 643.678L264.707 734.934L304.427 716.812L257.159 643.678ZM177.53 695.597L219.864 724.445L245.717 644.211L177.53 695.597ZM258.802 638.417L260.913 639.548L342.201 689.245L351.422 604.189L258.802 638.417ZM251.569 631.35L254.154 635.353L254.588 635.024L255.831 540.455L225.997 535.689L218.006 544.839L251.569 631.35ZM175.436 593.698L251.044 634.3L249.705 632.195L216.527 546.526L180.103 588.081L175.436 593.698ZM257.867 540.767L256.591 633.527L261.049 630.163L300.431 547.597L257.867 540.767Z" fill="#535461"/>
<path id="Vector_6" d="M370.222 608.871C365.881 591.129 357.454 574.647 345.613 560.74C341.218 555.572 336.387 550.789 331.175 546.446C311.136 529.784 286.131 520.248 260.086 519.333C234.04 518.419 208.429 526.179 187.27 541.394C166.112 556.609 150.604 578.42 143.181 603.401C135.758 628.383 136.84 655.123 146.258 679.423C155.675 703.724 172.894 724.209 195.213 737.666C217.531 751.122 243.686 756.786 269.573 753.771C295.459 750.755 319.611 739.229 338.239 721.003C356.866 702.776 368.915 678.881 372.494 653.066C373.325 646.989 373.686 640.856 373.573 634.723C373.418 626.008 372.294 617.337 370.222 608.871ZM257.177 725.342C238.948 725.662 221.062 720.359 205.953 710.156C190.843 699.952 179.242 685.343 172.728 668.314C166.215 651.285 165.103 632.663 169.546 614.981C173.988 597.298 183.769 581.413 197.558 569.484C211.347 557.556 228.475 550.164 246.613 548.314C264.751 546.463 283.018 550.244 298.932 559.141C314.846 568.039 327.633 581.622 335.555 598.043C343.477 614.464 346.149 632.927 343.209 650.92C339.839 671.429 329.385 690.108 313.666 703.706C297.947 717.304 277.958 724.96 257.177 725.342V725.342Z" fill="#535461"/>
<path id="Vector_7" d="M255.85 649.673C262.924 649.542 268.552 643.701 268.42 636.628C268.289 629.554 262.448 623.926 255.374 624.058C248.301 624.189 242.673 630.03 242.805 637.104C242.936 644.177 248.777 649.805 255.85 649.673Z" fill="#535461"/>
</g>
<g id="Man-bike">
<path id="Vector_8" d="M398.031 566.912L354.549 525.568L341.457 539.338L384.939 580.681L398.031 566.912Z" fill="#535461"/>
<path id="Vector_9" d="M364.359 505.213C364.359 505.213 388.902 491.675 398.324 483.078C403.996 477.926 410.112 473.284 416.599 469.206L447.342 449.702L512.238 443.495L515.442 454.437C515.442 454.437 520.738 470.341 471.007 485.268C421.276 500.195 396.689 522.656 396.689 522.656C396.689 522.656 364.898 534.208 364.359 505.213Z" fill="#DB8B8B"/>
<path id="Vector_10" opacity="0.1" d="M399.298 520.437C397.554 521.819 396.688 522.616 396.688 522.616C396.688 522.616 364.898 534.208 364.359 505.213C364.359 505.213 365.894 504.365 368.318 502.95C370.868 506.934 374.396 510.197 378.567 512.429C382.737 514.661 387.41 515.787 392.139 515.699L395.528 515.636L399.298 520.437Z" fill="black"/>
<path id="Vector_11" opacity="0.05" d="M514.604 459.973C511.934 465.914 502.526 475.771 471.006 485.228C430.615 497.351 406.808 514.426 399.298 520.437C397.554 521.819 396.688 522.616 396.688 522.616C396.688 522.616 364.898 534.208 364.359 505.213C364.359 505.213 365.894 504.365 368.318 502.95C375.671 498.742 391.232 489.521 398.293 483.039C403.964 477.885 410.08 473.243 416.568 469.167L447.311 449.662L458.873 448.557L512.207 443.455L515.411 454.397C515.411 454.397 516.151 456.534 514.604 459.973Z" fill="black"/>
<path id="Vector_12" d="M364.738 498.705L338.568 516.695L417.363 580.241C417.363 580.241 428.631 573.031 422.483 565.144C422.483 565.144 402.171 548.518 400.725 524.541L394.577 516.654L391.188 516.717C385.456 516.824 379.833 515.149 375.095 511.922C370.357 508.696 366.738 504.077 364.738 498.705V498.705Z" fill="#ABB1D1"/>
<path id="Vector_13" opacity="0.1" d="M514.604 459.973C498.464 452.542 459.395 452.438 459.395 452.438L458.903 448.557L512.237 443.455L515.441 454.397C515.441 454.397 516.151 456.534 514.604 459.973Z" fill="black"/>
<path id="Vector_14" d="M459.358 450.438C459.358 450.438 506.368 450.565 518.552 460.34L510.304 339.472L445.315 340.681L459.358 450.438Z" fill="#ABB1D1"/>
<path id="Vector_15" opacity="0.05" d="M459.348 449.939C459.348 449.939 506.359 450.065 518.543 459.84L510.295 338.973L445.306 340.181L459.348 449.939Z" fill="black"/>
<path id="Vector_16" d="M495.735 375.709C495.735 375.709 613.291 369.524 615.973 384.686C618.655 399.849 498.507 395.671 498.507 395.671C498.507 395.671 488.73 386.241 495.735 375.709Z" fill="#535461"/>
<path id="Vector_17" opacity="0.05" d="M495.735 375.709C495.735 375.709 613.291 369.524 615.973 384.686C618.655 399.849 498.507 395.671 498.507 395.671C498.507 395.671 488.73 386.241 495.735 375.709Z" fill="black"/>
<path id="Vector_18" d="M401.642 438.299L380.836 438.686L384.197 619.535L405.004 619.148L401.642 438.299Z" fill="#91929D"/>
<path id="Vector_19" opacity="0.1" d="M401.642 438.289L401.901 452.217C394.999 453.245 387.931 453.947 381.126 454.293L380.836 438.676L401.642 438.289Z" fill="black"/>
<path id="Vector_20" d="M399.804 423.331C396.88 423.159 393.969 422.823 391.083 422.322C379.765 420.372 351.246 416.372 343.74 424.203C334.32 433.979 337.832 450.727 363.482 452.651C389.132 454.574 433.026 447.357 441.656 437.585C441.655 437.545 425.486 424.824 399.804 423.331Z" fill="#535461"/>
<path id="Vector_21" d="M396.965 488.015L614.163 415.935L621.674 432.609L399.041 513.59L396.965 488.015Z" fill="#91929D"/>
<path id="Vector_22" d="M463.777 594.041L618.534 435.868L627.571 448.502L480.042 608.141L463.777 594.041Z" fill="#91929D"/>
<path id="Vector_23" opacity="0.1" d="M664.111 537.508C659.14 538.893 654.301 540.713 649.65 542.948L639.595 516.42C644.571 514.14 649.702 512.217 654.951 510.664L664.111 537.508Z" fill="black"/>
<path id="Vector_24" d="M692.314 615.408L681.235 622.015L599.051 405.174L595.37 395.471L613.583 384.721L618.459 399.013L692.314 615.408Z" fill="#91929D"/>
<path id="Vector_25" opacity="0.1" d="M618.459 399.013L599.051 405.174L595.37 395.471L613.583 384.721L618.459 399.013Z" fill="black"/>
<path id="Vector_26" d="M499.723 418.063L608.655 378.411C608.655 378.411 627.906 380.454 620.995 396.595L511.184 431.452C511.184 431.452 494.416 433.364 499.723 418.063Z" fill="#535461"/>
<path id="Vector_27" opacity="0.1" d="M379.969 628.815C380.082 634.948 379.721 641.08 378.89 647.158C369.279 646.646 359.342 645.831 349.605 645.012C351.543 633.083 351.047 620.885 348.148 609.153C357.579 606.977 367.212 604.888 376.618 602.983C378.689 611.443 379.813 620.106 379.969 628.815V628.815Z" fill="black"/>
<path id="Vector_28" opacity="0.1" d="M404.608 597.871L405.004 619.138L384.197 619.525L383.863 601.528C391.038 600.144 398.016 598.904 404.608 597.871Z" fill="black"/>
<path id="Vector_29" d="M270.731 630.475C270.731 630.475 437.964 583.359 451.874 599.893C465.784 616.428 480.608 638.576 438.384 647.362C396.16 656.149 267.68 636.923 267.68 636.923L270.731 630.475Z" fill="#91929D"/>
<path id="Vector_30" opacity="0.1" d="M352.009 554.832L331.016 574.775C327.144 569.99 322.786 565.62 318.012 561.735L337.561 540.538C342.777 544.881 347.611 549.663 352.009 554.832V554.832Z" fill="black"/>
<path id="Vector_31" d="M264.968 621.751L388.157 488.178L392.731 518.508L271.59 633.63L264.968 621.751Z" fill="#91929D"/>
<path id="Vector_32" opacity="0.1" d="M263.77 643.387C270.843 643.255 276.471 637.415 276.34 630.341C276.208 623.267 270.367 617.64 263.294 617.771C256.22 617.903 250.593 623.744 250.724 630.817C250.856 637.891 256.696 643.518 263.77 643.387Z" fill="black"/>
<path id="Vector_33" opacity="0.1" d="M687.464 634.311C694.538 634.179 700.166 628.339 700.034 621.265C699.903 614.192 694.062 608.564 686.988 608.695C679.915 608.827 674.287 614.668 674.419 621.741C674.55 628.815 680.391 634.442 687.464 634.311Z" fill="black"/>
<path id="Vector_34" opacity="0.1" d="M460.616 639.728C474.757 639.465 486.008 627.788 485.745 613.646C485.483 599.505 473.806 588.254 459.664 588.517C445.522 588.78 434.271 600.457 434.534 614.598C434.797 628.74 446.474 639.991 460.616 639.728Z" fill="black"/>
<path id="Vector_35" d="M462.226 639.698C476.367 639.435 487.618 627.758 487.355 613.616C487.092 599.475 475.415 588.224 461.274 588.487C447.132 588.75 435.881 600.427 436.144 614.568C436.407 628.71 448.084 639.961 462.226 639.698Z" fill="#535461"/>
<path id="Vector_36" d="M454.877 612.296L454.869 612.302C451.904 614.607 451.369 618.879 453.673 621.844L474.501 648.642C476.806 651.607 481.078 652.143 484.043 649.838L484.051 649.832C487.016 647.527 487.552 643.255 485.247 640.29L464.419 613.492C462.115 610.527 457.842 609.991 454.877 612.296Z" fill="#6C63FF"/>
<path id="Vector_37" d="M570.77 256.334L568.95 286.483C568.747 290.302 568.868 294.131 569.312 297.929C569.685 301.292 569.485 307.197 566.352 316.257C562.33 327.83 560.366 340.019 560.551 352.271L561.188 386.535L538.117 382.963C538.117 382.963 538.225 334.953 534.077 327.029C529.929 319.104 535.608 247.986 535.608 247.986L570.77 256.334Z" fill="#DB8B8B"/>
<path id="Vector_38" opacity="0.05" d="M569.867 271.274L568.95 286.483C568.75 290.299 568.875 294.124 569.322 297.918C569.695 301.282 569.494 307.187 566.362 316.257C562.34 327.83 560.376 340.019 560.561 352.271L561.198 386.535L538.127 382.963C538.127 382.963 538.235 334.953 534.087 327.028C531.152 321.412 533.139 284.099 534.553 262.799C535.141 254.036 535.618 247.986 535.618 247.986L570.78 256.334L569.867 271.274Z" fill="black"/>
<path id="Vector_39" d="M461.084 488.413L453.35 537.765C452.381 544.353 450.828 550.842 448.709 557.155C443.898 571.107 447.498 590.473 450.155 601.026C451.332 605.684 452.296 608.627 452.296 608.627L426.561 623.108L418.451 617.258L418.377 613.258L415.723 524.292C409.464 510.406 411.073 489.373 414.924 481.3C416.012 478.65 416.76 475.874 417.15 473.037C418.951 462.281 419.291 447.213 419.291 447.213C419.291 447.213 434.786 419.92 454.118 437.564C461.24 444.062 464.06 452.681 464.774 460.97C466.018 475.159 461.084 488.413 461.084 488.413Z" fill="#DB8B8B"/>
<path id="Vector_40" opacity="0.1" d="M464.774 460.94C451.059 469.436 426.977 472.214 417.15 473.007C418.95 462.252 419.29 447.183 419.29 447.183C419.29 447.183 434.786 419.89 454.117 437.534C461.239 444.032 464.06 452.651 464.774 460.94Z" fill="black"/>
<path id="Vector_41" d="M498.091 435.716C487.564 441.576 477.641 448.46 468.468 456.27C452.712 469.565 412.738 471.309 412.738 471.309L412.459 456.311C413.124 438.296 395.755 418.615 371.719 363.052C356.366 327.571 360.06 307.259 364.733 297.171C367.387 291.47 370.343 289.065 370.343 289.065L495.768 310.738L500.486 324.052L510.546 352.47C510.546 352.47 475.589 355.12 469.646 358.231C463.703 361.342 468.204 388.263 468.204 388.263C462.725 416.37 498.091 435.716 498.091 435.716Z" fill="#ABB1D1"/>
<path id="Vector_42" opacity="0.1" d="M570.77 256.334L569.867 271.274C552.563 276.596 539.849 260.91 539.849 260.91C538.044 261.43 536.272 262.061 534.543 262.799C535.131 254.036 535.608 247.986 535.608 247.986L570.77 256.334Z" fill="black"/>
<path id="Vector_43" opacity="0.1" d="M500.486 324.052C500.103 328.73 500.157 331.66 500.157 331.66C500.157 331.66 477.514 351.084 437.982 322.814C398.45 294.544 363.605 303.193 363.605 303.193C363.605 303.193 363.971 300.865 364.733 297.171C367.387 291.47 370.343 289.065 370.343 289.065L495.768 310.738L500.486 324.052Z" fill="black"/>
<path id="Vector_44" d="M583.521 217.041C581.29 237.436 580.897 263.097 580.897 263.097C558.236 281.522 539.811 258.86 539.811 258.86C518.203 265.093 508.348 284.289 503.847 300.966C501.438 309.986 500.179 319.274 500.101 328.61C500.101 328.61 494.115 333.722 482.935 334.93C472.363 336.017 457.135 333.54 437.925 319.764C398.393 291.494 363.548 300.143 363.548 300.143C363.548 300.143 369.803 260.02 385.578 247.725C401.352 235.429 413.071 220.209 432.213 173.845C451.354 127.481 492.552 137.718 492.552 137.718C492.552 137.718 494.384 128.682 531.545 136.993C540.599 139.187 549.021 143.45 556.151 149.448C576.246 165.717 586.324 191.344 583.521 217.041Z" fill="white"/>
<path id="Vector_45" d="M545.332 159.29C545.306 160.621 545.224 162.103 545.075 163.756C543.409 181.79 541.373 179.828 519.451 184.236C505.819 186.98 498.498 175.684 494.912 166.749C493.613 163.512 492.617 160.162 491.935 156.742L539.778 147.852C539.778 147.852 545.497 146.135 545.332 159.29Z" fill="#DB8B8B"/>
<path id="Vector_46" opacity="0.05" d="M503.848 301.016C501.439 310.036 500.18 319.324 500.102 328.66C500.102 328.66 494.115 333.772 482.936 334.98C482.609 334.349 482.355 333.683 482.179 332.994C480.012 324.033 464.717 308.314 464.717 308.314C454.552 299.502 452.255 283.542 452.255 283.542L434.856 235.357L429.274 230.96C429.274 230.96 451.935 212.535 472.21 227.161C492.486 241.787 487.081 273.893 487.081 273.893L491.285 284.816C495.5 288.239 499.833 294.329 503.848 301.016Z" fill="black"/>
<path id="Vector_47" d="M432.254 229.904L455.236 282.486C455.236 282.486 457.533 298.446 467.698 307.259C467.698 307.259 482.993 322.977 485.16 331.938C487.327 340.9 515.768 364.375 515.768 364.375C515.768 364.375 542.21 387.888 544.376 396.849C544.376 396.849 568.502 403.402 565.763 417.455C565.763 417.455 583.425 399.124 565.113 382.461C546.8 365.799 522.153 331.251 522.153 331.251C522.153 331.251 507.468 294.517 494.266 283.761L490.062 272.837C490.062 272.837 495.467 240.731 475.191 226.105C454.916 211.48 432.254 229.904 432.254 229.904Z" fill="#DB8B8B"/>
<path id="Vector_48" opacity="0.1" d="M452.296 608.597L426.561 623.078L418.45 617.228L418.376 613.228C427.347 612.423 436.025 609.628 443.778 605.045C446.153 603.64 448.387 602.259 450.175 601.045C451.311 605.655 452.296 608.597 452.296 608.597Z" fill="black"/>
<path id="Vector_49" opacity="0.1" d="M474.466 187.112L489.486 241.843C489.486 241.843 446.624 249.64 437.495 242.809C428.367 235.977 411.332 234.294 411.332 234.294C411.332 234.294 428.363 181.968 438.25 175.783C448.136 169.599 474.466 187.112 474.466 187.112Z" fill="black"/>
<path id="Vector_50" d="M474.429 185.113L489.449 239.843C489.449 239.843 446.587 247.641 437.458 240.809C428.329 233.978 411.295 232.294 411.295 232.294C411.295 232.294 428.326 179.969 438.212 173.784C448.099 167.599 474.429 185.113 474.429 185.113Z" fill="white"/>
<path id="Vector_51" opacity="0.1" d="M545.313 158.291C542.585 162.208 539.083 165.526 535.025 168.04C530.967 170.555 526.437 172.212 521.714 172.911C516.991 173.609 512.176 173.334 507.563 172.103C502.951 170.871 498.639 168.709 494.893 165.749C493.595 162.512 492.598 159.163 491.916 155.743L539.759 146.852C539.759 146.852 545.479 145.135 545.313 158.291Z" fill="black"/>
<path id="Vector_52" d="M551.542 136.671C551.715 145.952 548.193 154.921 541.753 161.606C535.312 168.291 526.48 172.143 517.199 172.315C507.918 172.488 498.948 168.967 492.264 162.526C485.579 156.085 481.727 147.253 481.554 137.972C481.544 137.392 481.533 136.812 481.522 136.232C481.58 126.947 485.325 118.065 491.931 111.541C498.538 105.016 507.466 101.383 516.752 101.442C526.037 101.5 534.919 105.244 541.443 111.851C547.968 118.458 551.6 127.386 551.542 136.671V136.671Z" fill="#DB8B8B"/>
<path id="Vector_53" opacity="0.1" d="M551.542 136.671C551.605 139.896 551.221 143.114 550.4 146.234C547.706 146.874 544.88 146.668 542.307 145.644C538.541 144.244 535.284 141.774 531.661 140.021C521.458 135.09 509.449 136.323 498.282 138.221C492.738 139.164 486.444 140.062 482.009 136.603C481.857 136.488 481.711 136.363 481.572 136.231C481.63 126.946 485.375 118.064 491.981 111.54C498.588 105.015 507.516 101.382 516.802 101.441C526.087 101.499 534.969 105.243 541.493 111.85C548.018 118.457 551.65 127.385 551.592 136.67L551.542 136.671Z" fill="black"/>
<path id="Vector_54" opacity="0.05" d="M390.068 247.191C390.068 247.191 416.194 253.707 424.527 271.555C432.86 289.403 454.558 292.29 454.558 292.29" fill="black"/>
<path id="Vector_55" d="M495.411 641.301L435.422 642.416L435.775 661.413L495.764 660.298L495.411 641.301Z" fill="#535461"/>
<path id="Vector_56" d="M443.775 606.995C449.088 603.896 453.741 600.809 454.128 599.561C454.128 599.561 467.942 613.607 480.092 617.822C484.178 619.246 488.099 621.104 491.787 623.366C496.622 626.276 503.507 629.679 509.695 629.564C509.695 629.564 523.916 641.302 496.958 643.803C470 646.305 406.881 640.477 406.881 640.477L410.415 615.407C422.113 615.875 433.697 612.954 443.775 606.995Z" fill="#ABB1D1"/>
</g>
<g id="Hat">
<path id="Hat_2" d="M455.237 113.394C457.491 120.033 467.723 120.053 473.063 124.874C475.84 127.383 477.18 131.139 480.222 133.363C484.451 136.465 490.457 135.653 495.752 134.794C506.411 133.076 517.873 131.953 527.597 136.383C531.046 137.949 534.158 140.171 537.752 141.435C541.346 142.698 545.779 142.776 548.634 140.362C550.919 138.43 551.711 135.304 553.772 133.186C555.371 131.516 557.623 130.554 559.456 129.079C563.478 125.924 565.145 120.872 566.215 116.052C568.431 106.129 568.923 95.4676 564.66 86.1752C560.396 76.8829 550.416 69.4371 539.687 70.1266C536.401 70.3377 533.207 71.2472 529.934 71.6681C521.402 72.6969 512.9 69.9844 504.312 69.6539C501.819 69.3974 499.301 69.7887 497.002 70.79C495.274 71.7931 493.793 73.1706 492.666 74.8213C488.835 80.0388 486.257 86.0692 485.133 92.4443C484.222 97.2521 484.252 101.592 478.397 102.441C471.745 103.445 450.465 99.3498 455.237 113.394Z" fill="#472727"/>
</g>
</g>
<defs>
<filter id="filter0_dd" x="-3.20306" y="0.239166" width="1080.11" height="812.502" filterUnits="userSpaceOnUse" color-interpolation-filters="sRGB">
<feFlood flood-opacity="0" result="BackgroundImageFix"/>
<feColorMatrix in="SourceAlpha" type="matrix" values="0 0 0 0 0 0 0 0 0 0 0 0 0 0 0 0 0 0 127 0"/>
<feOffset dy="4"/>
<feGaussianBlur stdDeviation="2"/>
<feColorMatrix type="matrix" values="0 0 0 0 0 0 0 0 0 0 0 0 0 0 0 0 0 0 0.25 0"/>
<feBlend mode="normal" in2="BackgroundImageFix" result="effect1_dropShadow"/>
<feColorMatrix in="SourceAlpha" type="matrix" values="0 0 0 0 0 0 0 0 0 0 0 0 0 0 0 0 0 0 127 0"/>
<feOffset dy="4"/>
<feGaussianBlur stdDeviation="2"/>
<feColorMatrix type="matrix" values="0 0 0 0 0 0 0 0 0 0 0 0 0 0 0 0 0 0 0.25 0"/>
<feBlend mode="normal" in2="effect1_dropShadow" result="effect2_dropShadow"/>
<feBlend mode="normal" in="SourceGraphic" in2="effect2_dropShadow" result="shape"/>
</filter>
<linearGradient id="paint0_linear" x1="1023.45" y1="126.409" x2="-62.5856" y2="753.201" gradientUnits="userSpaceOnUse">
<stop stop-color="#5EE2AF" stop-opacity="0.972093"/>
<stop offset="0.0001" stop-color="#A7E7CE" stop-opacity="0.972093"/>
<stop offset="0.403625" stop-color="#7DA7C5" stop-opacity="0.93351"/>
<stop offset="1" stop-color="#3E4AB6" stop-opacity="0.876488"/>
</linearGradient>
<clipPath id="clip0">
<rect width="1057.7" height="784.98" fill="white" transform="translate(0.796936 19.8965) rotate(-1.0649)"/>
</clipPath>
</defs>
</svg>
